<svg width="610" height="793" viewBox="0 0 610 793" fill="none" xmlns="http://www.w3.org/2000/svg">
<path d="M18.8385 77.664H323.453V275.275H18.8385V232.129H82.6958V215.733H18.8385V181.647H80.9692V165.683H18.8385V131.165H80.9692V113.907H18.8385V77.664Z" fill="#BB9B6C"/>
<path d="M540.207 7.57025L538.162 312.178L342.28 310.852L342.6 6.24359L385.746 6.53292L385.316 70.3889L401.712 70.4982L402.14 6.64357L436.227 6.87292L435.808 69.0023L451.772 69.1089L452.19 6.97959L486.707 7.21024L486.29 69.3409L503.547 69.4569L503.964 7.32625L540.207 7.57025Z" fill="#A95757"/>
<path d="M606.495 331.366H301.88V528.978H606.495V485.831H542.637V469.435H606.495V435.348H544.363V419.386H606.495V384.867H544.363V367.608H606.495V331.366Z" fill="#792333"/>
<path d="M90.6159 598.667L88.5865 294.059L286.193 292.743L288.223 597.351L245.077 597.639L244.652 533.783L228.256 533.891L228.681 597.748L194.597 597.973L194.183 535.844L178.219 535.951L178.633 598.081L144.116 598.309L143.703 536.181L126.444 536.296L126.859 598.425L90.6159 598.667Z" fill="#6B8167"/>
<path d="M67.1626 338.269H18.8386V519.484H67.1626V338.269Z" fill="#7B2433"/>
<path d="M275.992 -1.55592e-06H88.5853V52.208H275.992V-1.55592e-06Z" fill="#688269"/>
<path d="M606.495 77.664H560.328V270.96H606.495V77.664Z" fill="#BC9A66"/>
<path d="M348.477 548.824H533.145V598.667H348.477V548.824Z" fill="#AB555C"/>
<path d="M16.1721 750.458C14.707 750.458 13.5675 750.051 12.7536 749.237C11.9397 748.342 11.5327 747.121 11.5327 745.574V667.559C11.5327 665.931 11.9397 664.71 12.7536 663.896C13.5675 663.082 14.707 662.675 16.1721 662.675C17.4744 662.675 18.4918 662.96 19.2244 663.53C20.0383 664.018 20.7709 664.873 21.422 666.093L54.8748 729.092H51.2121L84.5428 666.093C85.194 664.873 85.8858 664.018 86.6184 663.53C87.3509 662.96 88.409 662.675 89.7927 662.675C91.1764 662.675 92.2752 663.082 93.0892 663.896C93.9031 664.71 94.3101 665.931 94.3101 667.559V745.574C94.3101 747.121 93.9031 748.342 93.0892 749.237C92.3566 750.051 91.2171 750.458 89.6706 750.458C88.2055 750.458 87.066 750.051 86.2521 749.237C85.4382 748.342 85.0312 747.121 85.0312 745.574V676.96H87.9614L57.4387 734.22C56.869 735.278 56.2585 736.051 55.6074 736.54C55.0376 736.947 54.183 737.15 53.0435 737.15C51.904 737.15 51.0086 736.906 50.3575 736.418C49.7063 735.929 49.1366 735.197 48.6482 734.22L17.7593 676.837H20.6895V745.574C20.6895 747.121 20.2825 748.342 19.4686 749.237C18.736 750.051 17.6372 750.458 16.1721 750.458ZM151.872 750.702C143.895 750.702 136.936 748.912 130.994 745.33C125.134 741.668 120.576 736.54 117.32 729.947C114.146 723.354 112.559 715.54 112.559 706.505C112.559 699.668 113.454 693.564 115.245 688.192C117.117 682.738 119.762 678.14 123.181 674.396C126.599 670.57 130.71 667.64 135.512 665.605C140.395 663.489 145.849 662.431 151.872 662.431C160.011 662.431 167.011 664.221 172.872 667.803C178.813 671.384 183.371 676.471 186.546 683.064C189.801 689.576 191.429 697.349 191.429 706.383C191.429 713.22 190.493 719.366 188.621 724.819C186.749 730.272 184.104 734.912 180.685 738.737C177.267 742.563 173.116 745.534 168.232 747.65C163.43 749.685 157.976 750.702 151.872 750.702ZM151.872 741.79C158.058 741.79 163.267 740.406 167.5 737.639C171.813 734.871 175.11 730.842 177.389 725.552C179.668 720.261 180.807 713.912 180.807 706.505C180.807 695.354 178.284 686.727 173.238 680.622C168.273 674.436 161.151 671.343 151.872 671.343C145.849 671.343 140.68 672.727 136.366 675.494C132.134 678.262 128.878 682.291 126.599 687.581C124.32 692.791 123.181 699.099 123.181 706.505C123.181 717.575 125.704 726.243 130.75 732.511C135.797 738.697 142.837 741.79 151.872 741.79ZM206.066 750.458C204.764 750.458 203.705 750.173 202.891 749.603C202.159 748.952 201.711 748.138 201.548 747.162C201.467 746.103 201.711 744.923 202.281 743.621L235.856 667.192C236.588 665.564 237.443 664.425 238.42 663.774C239.478 663.041 240.617 662.675 241.838 662.675C243.059 662.675 244.158 663.041 245.135 663.774C246.193 664.425 247.048 665.564 247.699 667.192L281.396 743.621C282.047 744.923 282.291 746.103 282.128 747.162C282.047 748.22 281.64 749.034 280.907 749.603C280.175 750.173 279.157 750.458 277.855 750.458C276.39 750.458 275.21 750.092 274.314 749.359C273.419 748.545 272.687 747.406 272.117 745.941L263.082 725.063L267.966 727.627H215.467L220.473 725.063L211.56 745.941C210.827 747.487 210.054 748.627 209.24 749.359C208.426 750.092 207.368 750.458 206.066 750.458ZM241.716 675.25L222.06 721.523L219.13 719.203H264.303L261.617 721.523L241.96 675.25H241.716ZM301.848 750.458C300.22 750.458 298.958 750.01 298.063 749.115C297.249 748.138 296.842 746.836 296.842 745.208V667.803C296.842 666.093 297.249 664.832 298.063 664.018C298.958 663.123 300.22 662.675 301.848 662.675C303.476 662.675 304.697 663.123 305.51 664.018C306.406 664.832 306.853 666.093 306.853 667.803V702.599H307.098L346.899 665.483C347.876 664.506 348.853 663.814 349.829 663.407C350.806 662.919 351.864 662.675 353.004 662.675C354.55 662.675 355.649 663.041 356.3 663.774C357.033 664.506 357.318 665.402 357.155 666.46C356.992 667.518 356.422 668.535 355.445 669.512L313.813 708.093L313.935 702.721L357.399 742.888C358.62 744.028 359.271 745.208 359.352 746.429C359.434 747.569 359.068 748.545 358.254 749.359C357.521 750.092 356.382 750.458 354.835 750.458C353.614 750.458 352.556 750.173 351.661 749.603C350.847 749.115 349.911 748.342 348.853 747.284L307.098 709.069H306.853V745.208C306.853 746.836 306.446 748.138 305.633 749.115C304.819 750.01 303.557 750.458 301.848 750.458ZM378.154 750.458C376.526 750.458 375.265 750.01 374.37 749.115C373.556 748.138 373.149 746.836 373.149 745.208V667.925C373.149 666.216 373.556 664.913 374.37 664.018C375.265 663.123 376.526 662.675 378.154 662.675C379.782 662.675 381.003 663.123 381.817 664.018C382.712 664.913 383.16 666.216 383.16 667.925V701.622H434.804V667.925C434.804 666.216 435.211 664.913 436.025 664.018C436.921 663.123 438.182 662.675 439.81 662.675C441.438 662.675 442.659 663.123 443.473 664.018C444.368 664.913 444.816 666.216 444.816 667.925V745.208C444.816 746.836 444.368 748.138 443.473 749.115C442.659 750.01 441.438 750.458 439.81 750.458C438.182 750.458 436.921 750.01 436.025 749.115C435.211 748.138 434.804 746.836 434.804 745.208V710.29H383.16V745.208C383.16 746.836 382.753 748.138 381.939 749.115C381.125 750.01 379.864 750.458 378.154 750.458ZM464.197 750.458C462.894 750.458 461.836 750.173 461.022 749.603C460.29 748.952 459.842 748.138 459.679 747.162C459.598 746.103 459.842 744.923 460.412 743.621L493.987 667.192C494.719 665.564 495.574 664.425 496.551 663.774C497.609 663.041 498.748 662.675 499.969 662.675C501.19 662.675 502.289 663.041 503.266 663.774C504.324 664.425 505.178 665.564 505.83 667.192L539.527 743.621C540.178 744.923 540.422 746.103 540.259 747.162C540.178 748.22 539.771 749.034 539.038 749.603C538.306 750.173 537.288 750.458 535.986 750.458C534.521 750.458 533.341 750.092 532.445 749.359C531.55 748.545 530.817 747.406 530.248 745.941L521.213 725.063L526.097 727.627H473.598L478.603 725.063L469.691 745.941C468.958 747.487 468.185 748.627 467.371 749.359C466.557 750.092 465.499 750.458 464.197 750.458ZM499.847 675.25L480.191 721.523L477.26 719.203H522.434L519.748 721.523L500.091 675.25H499.847ZM571.8 750.458C570.254 750.458 569.033 750.01 568.138 749.115C567.242 748.138 566.795 746.836 566.795 745.208V672.198H539.324C537.859 672.198 536.72 671.791 535.906 670.977C535.092 670.163 534.685 669.105 534.685 667.803C534.685 666.419 535.092 665.361 535.906 664.628C536.72 663.896 537.859 663.53 539.324 663.53H604.399C605.864 663.53 607.003 663.896 607.817 664.628C608.631 665.361 609.038 666.419 609.038 667.803C609.038 669.186 608.631 670.285 607.817 671.099C607.003 671.832 605.864 672.198 604.399 672.198H576.928V745.208C576.928 746.836 576.481 748.138 575.585 749.115C574.771 750.01 573.51 750.458 571.8 750.458Z" fill="#792333"/>
</svg>
